# xmcd
#
# Track frame offsets:
# 150
# 14837
# 29057
# 39383
# 60987
# 73922
# 91866
# 104747
# 124272
# 137063
# 154527
# 168575
#
# Disc length: 2461 seconds
#
#
# Revision: 0
# Processed by: cddbd v1.4PL0 Copyright (c) Steve Scherf et al.
# Submitted via: FreeRIP 2.00 
#
DISCID=aa099b0c
DTITLE=six feet under - warpath
DYEAR=1900
DGENRE=Christian Gangsta Rap
TTITLE0=war is coming
TTITLE1=nonexistance
TTITLE2=a journey into darkness
TTITLE3=animal instinct
TTITLE4=death or glory
TTITLE5=burning blood
TTITLE6=manipulation
TTITLE7=4:20
TTITLE8=revenge of the zombie
TTITLE9=as i die
TTITLE10=night visions
TTITLE11=caged and disgraced
EXTD=JV...made this.
EXTT0=
EXTT1=
EXTT2=
EXTT3=
EXTT4=
EXTT5=
EXTT6=
EXTT7=
EXTT8=
EXTT9=
EXTT10=
EXTT11=
PLAYORDER=
